<svg width="250" height="250" viewBox="0 0 250 250" fill="none" xmlns="http://www.w3.org/2000/svg">
<rect width="250" height="250" rx="32" fill="#245AE5"/>
<g clip-path="url(#clip0_26_1438)">
<rect x="186" y="70" width="10" height="10" fill="white"/>
<rect x="197" y="70" width="10" height="10" fill="white"/>
<rect x="186" y="81" width="10" height="10" fill="white"/>
<rect x="197" y="81" width="10" height="10" fill="white"/>
<rect x="186" y="92" width="10" height="10" fill="white"/>
<rect x="197" y="92" width="10" height="10" fill="white"/>
<rect x="186" y="103" width="10" height="10" fill="white"/>
<rect x="197" y="103" width="10" height="10" fill="white"/>
<rect x="186" y="114" width="10" height="10" fill="white"/>
<rect x="197" y="114" width="10" height="10" fill="white"/>
<rect x="186" y="125" width="10" height="10" fill="white"/>
<rect x="197" y="125" width="10" height="10" fill="white"/>
<rect x="186" y="136" width="10" height="10" fill="white"/>
<rect x="197" y="136" width="10" height="10" fill="white"/>
<rect x="186" y="147" width="10" height="10" fill="white"/>
<rect x="197" y="147" width="10" height="10" fill="white"/>
<rect x="186" y="158" width="10" height="10" fill="white"/>
<rect x="197" y="158" width="10" height="10" fill="white"/>
<rect x="186" y="169" width="10" height="10" fill="white"/>
<rect x="197" y="169" width="10" height="10" fill="white"/>
<rect x="175" y="147" width="10" height="10" fill="white"/>
<rect x="175" y="136" width="10" height="10" fill="white"/>
<rect x="175" y="158" width="10" height="10" fill="white"/>
<rect x="164" y="136" width="10" height="10" fill="white"/>
<rect x="164" y="125" width="10" height="10" fill="white"/>
<rect x="164" y="147" width="10" height="10" fill="white"/>
<rect x="131" y="103" width="10" height="10" fill="white"/>
<rect x="131" y="92" width="10" height="10" fill="white"/>
<rect x="131" y="114" width="10" height="10" fill="white"/>
<rect x="120" y="92" width="10" height="10" fill="white"/>
<rect x="120" y="81" width="10" height="10" fill="white"/>
<rect x="109" y="70" width="10" height="10" fill="white"/>
<rect x="65" y="70" width="10" height="10" fill="white"/>
<rect x="65" y="103" width="10" height="10" fill="white"/>
<rect x="65" y="125" width="10" height="10" fill="white"/>
<rect x="65" y="136" width="10" height="10" fill="white"/>
<rect x="43" y="126" width="10" height="10" fill="white"/>
<rect x="43" y="81" width="10" height="10" fill="white"/>
<rect x="98" y="125" width="10" height="10" fill="white"/>
<rect x="98" y="147" width="10" height="10" fill="white"/>
<rect x="98" y="81" width="10" height="10" fill="white"/>
<rect x="98" y="103" width="10" height="10" fill="white"/>
<rect x="109" y="169" width="10" height="10" fill="white"/>
<rect x="109" y="92" width="10" height="10" fill="white"/>
<rect x="109" y="114" width="10" height="10" fill="white"/>
<rect x="109" y="136" width="10" height="10" fill="white"/>
<rect x="109" y="158" width="10" height="10" fill="white"/>
<rect x="87" y="70" width="10" height="10" fill="white"/>
<rect x="87" y="169" width="10" height="10" fill="white"/>
<rect x="87" y="92" width="10" height="10" fill="white"/>
<rect x="87" y="114" width="10" height="10" fill="white"/>
<rect x="87" y="136" width="10" height="10" fill="white"/>
<rect x="120" y="103" width="10" height="10" fill="white"/>
<rect x="120" y="125" width="10" height="10" fill="white"/>
<rect x="120" y="114" width="10" height="10" fill="white"/>
<rect x="120" y="136" width="10" height="10" fill="white"/>
<rect x="120" y="158" width="10" height="10" fill="white"/>
<rect x="120" y="147" width="10" height="10" fill="white"/>
<rect x="120" y="169" width="10" height="10" fill="white"/>
<rect x="153" y="125" width="10" height="10" fill="white"/>
<rect x="153" y="114" width="10" height="10" fill="white"/>
<rect x="153" y="136" width="10" height="10" fill="white"/>
<rect x="142" y="114" width="10" height="10" fill="white"/>
<rect x="142" y="103" width="10" height="10" fill="white"/>
<rect x="142" y="125" width="10" height="10" fill="white"/>
</g>
<defs>
<clipPath id="clip0_26_1438">
<rect width="164" height="109" fill="white" transform="translate(43 70)"/>
</clipPath>
</defs>
</svg>
